<svg width="94" height="95" viewBox="0 0 94 95" fill="none" xmlns="http://www.w3.org/2000/svg">
<g clip-path="url(#clip0_28_1261)">
<g clip-path="url(#clip1_28_1261)">
<path d="M48.0828 11.5082C32.6806 11.5082 20.1489 24.0373 20.1489 39.4392C20.1489 49.7344 25.7374 59.0773 34.7829 63.9792L34.2646 68.2543C34.2646 70.7467 35.5157 72.9489 37.4204 74.2744C36.0803 75.0511 35.1597 76.5229 35.1597 78.2289C35.1597 79.9835 36.1315 81.4919 37.5363 82.2479C36.7973 83.0308 36.3352 84.0782 36.3352 85.2366C36.3352 87.6437 38.2947 89.6044 40.703 89.6044H40.8469C40.8457 89.6178 40.8396 89.6288 40.8396 89.6422C40.8396 92.6468 44.2186 95.0002 48.5291 95.0002C50.218 95.0002 51.8166 94.6331 53.1506 93.9417C53.6177 93.7015 53.7993 93.1272 53.5567 92.6602C53.3152 92.1956 52.7446 92.009 52.2751 92.2541C51.2252 92.7967 49.8948 93.0979 48.5291 93.0979C45.3916 93.0979 42.7419 91.5152 42.7419 89.641C42.7419 89.6276 42.7346 89.6166 42.7333 89.6032H55.4602C57.8672 89.6032 59.828 87.6437 59.828 85.2354C59.828 83.099 58.2831 81.3236 56.254 80.9481C56.1381 80.8968 56.0113 80.8676 55.876 80.8676H55.4614H40.7043H39.5275C38.1679 80.8676 37.0619 79.6836 37.0619 78.2276C37.0619 76.7705 38.1679 75.5865 39.5275 75.5865H41.5969H54.5651H56.6357C57.9953 75.5865 59.1013 76.7705 59.1013 78.2276C59.1013 78.9922 59.1013 78.9922 58.5684 79.7287C58.2611 80.153 58.3562 80.7481 58.7818 81.0554C59.2049 81.3614 59.8 81.2675 60.1085 80.842C60.9365 79.6994 61.0035 79.5031 61.0035 78.2264C61.0035 75.7218 59.044 73.683 56.6357 73.683H54.5651H41.5969C38.602 73.683 36.1657 71.2455 36.1571 68.3665L36.7473 63.5561L36.2376 62.5952C27.486 58.114 22.0512 49.2406 22.0512 39.4392C22.0512 25.0859 33.7281 13.4092 48.0828 13.4092C62.4363 13.4092 74.112 25.0859 74.112 39.4392C74.112 49.2394 68.676 58.114 59.9268 62.5989L59.4171 63.561L59.9988 68.2543C59.9988 69.7127 59.422 71.0857 58.3745 72.1173C58.0002 72.4856 57.9965 73.0879 58.3648 73.4611C58.733 73.8342 59.3354 73.8391 59.7085 73.4708C61.123 72.0771 61.9022 70.2249 61.8937 68.1385L61.384 63.978C70.4258 59.0749 76.0143 49.7332 76.0143 39.438C76.0143 24.0385 63.4838 11.5082 48.0828 11.5082ZM40.7043 82.7719H55.4614C56.821 82.7719 57.927 83.8779 57.927 85.2375C57.927 86.5971 56.821 87.7031 55.4614 87.7031H40.7043C39.3446 87.7031 38.2386 86.5971 38.2386 85.2375C38.2386 83.8782 39.3446 82.7719 40.7043 82.7719Z" fill="#391212" stroke="#391212" stroke-width="1.00001"/>
<path d="M59.6365 54.1921C59.9962 54.1043 60.2169 53.7422 60.1291 53.3812C60.0413 53.0215 59.6731 52.8008 59.3195 52.8886C57.8537 53.2483 56.21 52.7496 54.9248 51.5619C54.9235 51.5594 54.9211 51.557 54.9187 51.5558C56.0003 50.1315 56.5161 48.3719 56.3405 46.6819C56.2454 45.7759 55.9381 45.1564 55.4015 44.7881C54.8955 44.4418 54.2956 44.3882 53.7127 44.6369C52.853 45.004 52.1067 46.027 51.9372 47.0684C51.6873 48.6 52.1226 50.2023 53.1152 51.5448C52.3421 52.2386 51.4251 52.6545 50.4715 52.7349C49.3985 52.8264 48.2815 52.4057 47.395 51.6192C48.1035 50.4608 48.5339 49.2389 48.7936 48.2232C49.1021 47.0209 48.9461 46.1295 48.3327 45.5734C47.8913 45.1747 47.317 45.0442 46.7182 45.2027C45.8586 45.432 45.0513 46.238 44.755 47.1599C44.2672 48.6658 44.6075 50.3266 45.683 51.735C45.283 52.2386 44.8123 52.7045 44.2551 53.0959C44.1795 53.1495 44.1002 53.2007 44.0234 53.2495C43.4283 51.6338 42.6515 50.0864 41.6516 48.6292C40.4725 46.9148 39.3433 46.6989 38.6019 46.827C38.13 46.9038 37.6764 47.144 37.2496 47.5367C36.3948 48.328 35.9473 49.5231 36.0266 50.8156C36.1144 52.2752 36.8302 53.6263 37.9398 54.4299C39.397 55.4835 41.3834 55.7017 43.221 55.0981C44.7282 60.194 44.5575 65.9532 44.0599 71.5758C44.027 71.9453 44.3002 72.2709 44.6696 72.3026C44.6892 72.3038 44.7087 72.305 44.7294 72.305C45.072 72.305 45.3647 72.0416 45.3964 71.6929C45.9122 65.8666 46.0805 59.8867 44.4599 54.5506C44.6538 54.4409 44.8428 54.3214 45.0269 54.1921C45.6427 53.7605 46.1683 53.2556 46.6158 52.7142C47.7596 53.6812 49.2021 54.1836 50.5849 54.0702C51.8348 53.9641 53.0213 53.43 54.0114 52.5411C54.0126 52.5423 54.0126 52.5423 54.0139 52.5435C55.6283 54.0397 57.7294 54.6543 59.6365 54.1921ZM38.7251 53.3434C37.9483 52.7813 37.4264 51.7826 37.3643 50.7351C37.3094 49.834 37.5923 49.0487 38.1605 48.5219C38.3861 48.3134 38.6141 48.1854 38.819 48.15C38.8629 48.1439 38.9043 48.1403 38.9458 48.1403C39.586 48.1403 40.214 48.9097 40.5444 49.3901C41.4992 50.779 42.237 52.2643 42.7991 53.8202C41.3663 54.2839 39.8177 54.1324 38.7251 53.3434ZM46.478 50.5281C45.8903 49.5721 45.7256 48.5198 46.0329 47.5723C46.1878 47.0907 46.6512 46.609 47.0658 46.4993C47.1206 46.4846 47.1682 46.4773 47.2084 46.4773C47.3157 46.4773 47.3816 46.52 47.4316 46.5663C47.6413 46.7566 47.6633 47.2272 47.495 47.8894C47.2913 48.6841 46.9731 49.6206 46.478 50.5281ZM53.2615 47.2842C53.3566 46.7038 53.8054 46.0563 54.2407 45.8697C54.3187 45.8356 54.3846 45.8222 54.4394 45.8222C54.5248 45.8222 54.5894 45.8551 54.6443 45.8929C54.8309 46.021 54.9552 46.3417 55.0077 46.8209C55.1357 48.0598 54.7723 49.3987 54.0248 50.501C53.3651 49.5048 53.0859 48.3649 53.2615 47.2842Z" fill="#391212" stroke="#391212" stroke-width="1.00001"/>
<path d="M54.6918 54.5544C52.1713 60.0466 51.4982 65.9082 52.6273 71.8418C52.7883 72.6893 54.0821 72.3308 53.9211 71.4857C52.8651 65.9387 53.4919 60.3709 55.8502 55.2324C56.2075 54.4517 55.0515 53.7688 54.6918 54.5544Z" fill="#391212" stroke="#391212" stroke-width="1.00001"/>
<path d="M59.3789 18.8197C58.6302 18.388 57.9534 19.5464 58.7021 19.9781C65.2698 23.7594 68.9548 30.8905 68.3 38.4312C68.2244 39.2909 69.5669 39.286 69.6413 38.4312C70.3352 30.4356 66.3258 22.8193 59.3789 18.8197Z" fill="#391212" stroke="#391212" stroke-width="1.00001"/>
<path d="M68.7964 45.4675C69.4914 44.209 69.6999 42.8433 69.4585 41.4313C69.3134 40.5826 68.0208 40.9423 68.1647 41.7885C68.344 42.8336 68.1477 43.8664 67.638 44.7907C67.2197 45.5482 68.3781 46.2247 68.7964 45.4675Z" fill="#391212" stroke="#391212" stroke-width="1.00001"/>
<path d="M28.5883 27.4814C26.5605 30.5896 25.4776 34.0673 25.352 37.7755C25.3228 38.6388 26.6641 38.6376 26.6934 37.7755C26.8117 34.2844 27.8384 31.0847 29.7467 28.1593C30.2186 27.4338 29.0578 26.761 28.5883 27.4814Z" fill="#391212" stroke="#391212" stroke-width="1.00001"/>
<path d="M25.4553 41.1167C25.1505 42.7763 25.4383 44.4115 26.3577 45.8345C26.8247 46.5564 27.9868 45.8858 27.5161 45.1578C26.7979 44.0469 26.5089 42.7812 26.7491 41.4728C26.904 40.6289 25.6114 40.2665 25.4553 41.1167Z" fill="#391212" stroke="#391212" stroke-width="1.00001"/>
<path d="M46.2061 4.90395V0.647956C46.2061 -0.215376 44.8647 -0.216595 44.8647 0.647956V4.90364C44.8647 5.76697 46.2061 5.7685 46.2061 4.90395Z" fill="#391212" stroke="#391212" stroke-width="1.00001"/>
<path d="M81.071 16.857C79.4663 17.9239 77.8604 18.9909 76.2556 20.0579C75.5399 20.5334 76.2105 21.6967 76.9324 21.2163C78.5371 20.1493 80.1431 19.0824 81.7478 18.0154C82.4636 17.5398 81.7929 16.3765 81.071 16.857Z" fill="#391212" stroke="#391212" stroke-width="1.00001"/>
<path d="M14.0932 24.8551C13.4811 24.2442 12.5324 25.1917 13.1446 25.8038C14.2798 26.9378 15.4151 28.0731 16.5491 29.2084C17.1612 29.8193 18.1099 28.8718 17.4978 28.2597C16.3625 27.1256 15.2285 25.9904 14.0932 24.8551Z" fill="#391212" stroke="#391212" stroke-width="1.00001"/>
<path d="M28.4027 13.7238C28.8856 14.4335 30.0489 13.7629 29.5612 13.0471C28.6978 11.7789 27.8357 10.5095 26.9712 9.24133C26.4883 8.53165 25.3262 9.20109 25.814 9.9181C26.6773 11.186 27.5406 12.4554 28.4027 13.7238Z" fill="#391212" stroke="#391212" stroke-width="1.00001"/>
<path d="M64.2971 11.7518C65.1154 10.7324 65.9324 9.71172 66.7506 8.6923C67.2859 8.0253 66.3421 7.07051 65.8019 7.74362C64.9837 8.76425 64.1667 9.78366 63.3485 10.8031C62.8131 11.4701 63.757 12.4252 64.2971 11.7518Z" fill="#391212" stroke="#391212" stroke-width="1.00001"/>
</g>
</g>
<defs>
<clipPath id="clip0_28_1261">
<rect width="95" height="95" fill="white"/>
</clipPath>
<clipPath id="clip1_28_1261">
<rect width="95" height="95" fill="white"/>
</clipPath>
</defs>
</svg>
