<svg width="95" height="95" viewBox="0 0 95 95" fill="none" xmlns="http://www.w3.org/2000/svg">
<path d="M47.4998 5.27779C43.7083 5.2883 39.9356 5.81204 36.2845 6.83474L38.3165 11.7431C46.2085 9.65344 54.5692 10.2232 62.1048 13.3642C69.6404 16.5051 75.9307 22.0422 80.0022 29.1185C84.0737 36.1947 85.6994 44.4156 84.6278 52.509C83.5562 60.6023 79.847 68.1168 74.0742 73.8896C68.3014 79.6625 60.7869 83.3717 52.6935 84.4433C44.6002 85.5149 36.3793 83.8891 29.303 79.8176C22.2268 75.7461 16.6897 69.4558 13.5487 61.9203C10.4078 54.3847 9.838 46.024 11.9276 38.1319L7.01929 36.0736C4.624 44.5945 4.96714 53.6528 8.00021 61.9681C11.0333 70.2834 16.6029 77.4352 23.9219 82.4128C31.2408 87.3904 39.939 89.942 48.7871 89.707C57.6352 89.472 66.1857 86.4622 73.2301 81.1031C80.2745 75.744 85.4566 68.3066 88.044 59.842C90.6314 51.3775 90.4932 42.3138 87.649 33.932C84.8047 25.5502 79.3983 18.2743 72.1937 13.1324C64.9892 7.99061 56.3509 5.24295 47.4998 5.27779Z" fill="white" stroke="white" stroke-width="0.00256"/>
<path d="M19.6596 41.4306C18.3425 47.4488 19.0091 53.7316 21.5596 59.3395C24.1101 64.9473 28.4076 69.5788 33.8092 72.5412C39.2108 75.5036 45.4263 76.6377 51.5261 75.7739C57.6259 74.9101 63.2821 72.0949 67.6488 67.7492C72.0155 63.4035 74.8581 57.761 75.7513 51.6654C76.6446 45.5699 75.5405 39.349 72.6042 33.9331C69.668 28.5173 65.0573 24.1975 59.4619 21.6199C53.8664 19.0423 47.5868 18.3454 41.5624 19.6334L43.1985 23.75C48.3241 22.7904 53.6224 23.4993 58.3154 25.7726C63.0085 28.0459 66.8492 31.7639 69.2736 36.3808C71.6979 40.9976 72.5783 46.2701 71.7855 51.4242C70.9927 56.5782 68.5683 61.3424 64.8685 65.0171C61.1686 68.6919 56.3881 71.0837 51.2287 71.8415C46.0694 72.5992 40.803 71.6829 36.2028 69.2272C31.6026 66.7714 27.9108 62.9055 25.6695 58.1971C23.4281 53.4887 22.7553 48.1857 23.7499 43.0667L19.6596 41.4306Z" fill="white" stroke="white" stroke-width="0.00256"/>
<path d="M47.5 58.293C44.8548 58.2539 42.3166 57.2422 40.3697 55.4511C38.4228 53.6599 37.2035 51.2147 36.9445 48.5819L32.6431 46.7875C32.6431 47.025 32.6431 47.2625 32.6431 47.5C32.6432 50.4764 33.528 53.3857 35.185 55.8583C36.842 58.3308 39.1965 60.2551 41.9494 61.3868C44.7023 62.5185 47.7295 62.8064 50.6464 62.2141C53.5633 61.6218 56.2384 60.1759 58.3319 58.0601C60.4254 55.9443 61.8428 53.2541 62.4042 50.3311C62.9655 47.408 62.6455 44.3841 61.4847 41.6433C60.3239 38.9026 58.3747 36.5686 55.8847 34.9379C53.3948 33.3072 50.4763 32.4533 47.5 32.4847H46.8667L48.6347 36.9444C51.2723 37.3444 53.6665 38.7116 55.3514 40.7799C57.0363 42.8482 57.8911 45.4695 57.7495 48.1334C57.6079 50.7973 56.48 53.3132 54.5854 55.1912C52.6908 57.0692 50.1651 58.1749 47.5 58.293Z" fill="white" stroke="white" stroke-width="0.00256"/>
<path d="M21.6389 35.2028C21.8825 35.4514 22.2144 35.5937 22.5625 35.5986H32.1944L46.3652 49.7695C46.8622 50.2699 47.5375 50.5524 48.2427 50.5549C48.9479 50.5574 49.6252 50.2796 50.1257 49.7827C50.6261 49.2858 50.9086 48.6104 50.9111 47.9052C50.9135 47.2 50.6358 46.5227 50.1389 46.0223L35.7041 31.6667V22.457C35.6992 22.1089 35.5569 21.777 35.3083 21.5334L20.5569 6.78196C20.3725 6.60115 20.1391 6.47843 19.8856 6.42903C19.632 6.37962 19.3696 6.40571 19.1308 6.50405C18.892 6.60238 18.6873 6.76865 18.542 6.98224C18.3968 7.19582 18.3175 7.44733 18.3139 7.70558V18.2611H7.91663C7.65838 18.2648 7.40688 18.3441 7.19329 18.4893C6.97971 18.6345 6.81344 18.8393 6.71511 19.0781C6.61677 19.3169 6.59068 19.5793 6.64009 19.8328C6.68949 20.0863 6.81221 20.3198 6.99302 20.5042L21.6389 35.2028Z" fill="white" stroke="#351010" stroke-width="0.00256"/>
<path d="M95 0H0V95H95V0Z" stroke="#8D1C1C" stroke-width="0.00256"/>
</svg>
