<svg width="95" height="95" viewBox="0 0 95 95" fill="none" xmlns="http://www.w3.org/2000/svg">
<path d="M72.7948 41.9467C72.7948 38.9392 70.3482 36.4928 67.3407 36.4928H57.3171C59.7524 33.7554 61.344 30.6384 61.6514 27.842C61.8392 26.1341 61.3115 24.4387 60.2032 23.1906C59.1903 22.0496 57.8052 21.4138 56.303 21.3998C56.2856 21.3997 56.2682 21.3997 56.2509 21.3997C54.7979 21.3997 53.4341 21.9593 52.4049 22.979C51.3755 23.999 50.8059 25.3577 50.7992 26.8078C50.7463 27.1253 50.1878 28.2198 48.8212 29.5194C47.7024 30.5837 45.7697 32.0467 42.9162 32.9731C41.7974 33.3364 40.7748 34.0053 39.8771 34.9613C39.406 35.4626 38.7006 36.1551 37.8272 36.8501C37.3986 36.623 36.9112 36.4932 36.3933 36.4932H26.8735C25.1783 36.4932 23.7993 37.8721 23.7993 39.5673V64.9534C23.7993 66.6486 25.1783 68.0276 26.8735 68.0276H36.3933C37.5489 68.0276 38.5566 67.386 39.0817 66.441H63.3741C65.9441 66.441 68.0348 64.3502 68.0348 61.7802C68.0348 60.9161 67.7986 60.1064 67.3871 59.4117C68.7262 58.592 69.6214 57.1154 69.6214 55.4336C69.6214 54.5695 69.3852 53.7598 68.9737 53.0651C70.3128 52.2453 71.208 50.7688 71.208 49.087C71.208 48.1143 70.9086 47.2103 70.397 46.4622C71.843 45.4801 72.7948 43.8224 72.7948 41.9467ZM67.3407 44.4258H66.5473C65.7259 44.4258 65.0597 45.0918 65.0597 45.9134C65.0597 46.7348 65.7257 47.4009 66.5473 47.4009C67.4769 47.4009 68.2332 48.1572 68.2332 49.0868C68.2332 50.0164 67.4769 50.7727 66.5473 50.7727H64.9607C64.1393 50.7727 63.4731 51.4386 63.4731 52.2602C63.4731 53.0816 64.1391 53.7477 64.9607 53.7477C65.8903 53.7477 66.6465 54.504 66.6465 55.4336C66.6465 56.3632 65.8903 57.1195 64.9607 57.1195H63.3741C62.5526 57.1195 61.8865 57.7854 61.8865 58.607C61.8865 59.4284 62.5524 60.0945 63.3741 60.0945C64.3036 60.0945 65.0599 60.8508 65.0599 61.7804C65.0599 62.71 64.3036 63.4663 63.3741 63.4663H39.4675V49.0873C39.4675 48.2659 38.8015 47.5998 37.9799 47.5998C37.1583 47.5998 36.4924 48.2657 36.4924 49.0873V64.9536C36.4924 65.0084 36.448 65.0527 36.3933 65.0527H26.8735C26.8187 65.0527 26.7744 65.0084 26.7744 64.9536V39.5667C26.7744 39.512 26.8187 39.4677 26.8735 39.4677H36.3933C36.448 39.4677 36.4924 39.512 36.4924 39.5667V42.7401C36.4924 43.5616 37.1583 44.2277 37.9799 44.2277C38.8015 44.2277 39.4675 43.5617 39.4675 42.7401V39.5667C39.4675 39.4946 39.4615 39.4239 39.4565 39.353C40.5718 38.4896 41.4637 37.6168 42.0456 36.9975C42.5961 36.411 43.1981 36.0091 43.8347 35.8025C47.3359 34.6659 49.6922 32.8357 51.0521 31.5005C52.7565 29.827 53.7739 28.0825 53.7739 26.8336C53.7739 26.1738 54.0312 25.5554 54.4986 25.0922C54.9717 24.6233 55.5983 24.3756 56.2754 24.3747C57.1092 24.3825 57.6614 24.8091 57.9782 25.1657C58.5211 25.7771 58.7883 26.6562 58.6938 27.517C58.3689 30.4725 56.0052 34.1259 52.6721 36.8242C52.1824 37.2207 51.9956 37.8827 52.2058 38.4767C52.416 39.0706 52.9779 39.4677 53.608 39.4677H67.3403C68.7074 39.4677 69.8194 40.5796 69.8194 41.9467C69.8194 43.3139 68.7076 44.4258 67.3407 44.4258Z" fill="white" stroke="white" stroke-width="0.002"/>
<path d="M31.6335 58.6896C30.8121 58.6896 30.1382 59.3635 30.1382 60.1849C30.1382 61.0063 30.8121 61.6802 31.6335 61.6802C32.4549 61.6802 33.1288 61.0063 33.1288 60.1849C33.129 59.3637 32.4551 58.6896 31.6335 58.6896Z" fill="white" stroke="white" stroke-width="0.002"/>
<path d="M92.3481 47.5003L94.9035 40.7384C95.0896 40.2465 95.0018 39.693 94.6728 39.2824L90.1531 33.6411L90.4938 26.4205C90.5186 25.8954 90.264 25.3957 89.8247 25.1072L83.7829 21.1385L81.8758 14.1661C81.737 13.6588 81.3407 13.2624 80.8336 13.1238L73.8611 11.2168L69.8925 5.1752C69.6038 4.73564 69.1043 4.48218 68.5792 4.50612L61.3586 4.84678L55.7173 0.327045C55.3068 -0.0017442 54.7533 -0.0895079 54.2613 0.0964101L47.4994 2.65176L40.7379 0.0965956C40.2456 -0.0895079 39.6923 -0.00174422 39.2819 0.32723L33.6405 4.84697L26.42 4.5063C25.8923 4.48144 25.3952 4.73601 25.1067 5.17538L21.1382 11.2172L14.1657 13.1242C13.6584 13.263 13.2621 13.6593 13.1235 14.1664L11.2164 21.1389L5.17466 25.1074C4.7351 25.3961 4.48071 25.8956 4.50557 26.4207L4.84624 33.6412L0.326502 39.2826C-0.00228706 39.693 -0.0900507 40.2465 0.0958672 40.7386L2.65103 47.5003L0.0956817 54.262C-0.0904218 54.7539 -0.00265815 55.3074 0.326316 55.718L4.84605 61.3593L4.50539 68.5799C4.48053 69.105 4.7351 69.6047 5.17447 69.8932L11.2162 73.8619L13.1233 80.8344C13.2621 81.3416 13.6584 81.738 14.1655 81.8766L21.138 83.7836L25.1065 89.8254C25.3952 90.2649 25.8956 90.5177 26.4198 90.4945L33.6403 90.1538L39.2817 94.6735C39.6921 95.0025 40.2458 95.0903 40.7377 94.9042L47.4996 92.3488L54.2615 94.9042C54.4322 94.9686 54.6101 95.0001 54.7871 95.0001C55.1203 95.0001 55.4493 94.8882 55.7173 94.6735L61.3586 90.1538L68.5792 90.4945C69.1059 90.5179 69.6038 90.2648 69.8925 89.8254L73.8611 83.7836L80.8336 81.8766C81.3409 81.7378 81.7372 81.3414 81.8758 80.8344L83.7829 73.8619L89.8247 69.8932C90.2642 69.6045 90.5186 69.105 90.4938 68.5799L90.1531 61.3593L94.6728 55.718C95.0016 55.3075 95.0894 54.7541 94.9035 54.262L92.3481 47.5003ZM89.3665 48.0261L91.8206 54.5201L87.4799 59.9379C87.2534 60.2205 87.1378 60.5762 87.1548 60.938L87.4821 67.8724L81.6799 71.6837C81.3773 71.8825 81.1572 72.1851 81.0617 72.5346L79.2301 79.2308L72.5339 81.0624C72.1845 81.1579 71.8821 81.3778 71.683 81.6806L67.8717 87.4829L60.9372 87.1556C60.5752 87.1389 60.2197 87.2541 59.9371 87.4806L54.5194 91.8213L48.0254 89.3673C47.856 89.3033 47.6777 89.2713 47.4996 89.2713C47.3214 89.2713 47.1431 89.3034 46.9737 89.3673L40.4798 91.8213L35.062 87.4806C34.7794 87.2541 34.4232 87.1389 34.0619 87.1556L27.1274 87.4829L23.3161 81.6806C23.1174 81.378 22.8148 81.1579 22.4652 81.0624L15.769 79.2308L13.9375 72.5346C13.8419 72.1853 13.622 71.8828 13.3192 71.6837L7.517 67.8724L7.8443 60.938C7.86137 60.576 7.74578 60.2205 7.51923 59.9379L3.17854 54.5201L5.63277 48.0261C5.7608 47.6873 5.7608 47.3133 5.63277 46.9745L3.17854 40.4805L7.51923 35.0627C7.74578 34.7801 7.86137 34.4244 7.8443 34.0626L7.517 27.1282L13.3192 23.3169C13.6219 23.1181 13.8419 22.8155 13.9375 22.4659L15.769 15.7697L22.4652 13.9382C22.8146 13.8426 23.117 13.6228 23.3161 13.32L27.1274 7.51773L34.0619 7.84503C34.4233 7.86192 34.7794 7.74651 35.062 7.51995L40.4798 3.17927L46.9737 5.6335C47.3127 5.76153 47.6866 5.76153 48.0254 5.6335L54.5194 3.17927L59.9371 7.51995C60.2197 7.74669 60.5756 7.8621 60.9372 7.84503L67.8717 7.51773L71.683 13.32C71.8817 13.6226 72.1844 13.8426 72.5339 13.9382L79.2301 15.7697L81.0617 22.4659C81.1572 22.8153 81.3771 23.1178 81.6799 23.3169L87.4821 27.1282L87.1548 34.0626C87.1378 34.4246 87.2534 34.7801 87.4799 35.0627L91.8206 40.4805L89.3664 46.9745C89.2385 47.3134 89.2385 47.6873 89.3665 48.0261Z" fill="white" stroke="white" stroke-width="0.002"/>
<path d="M75.4494 21.8155C75.0792 21.4124 74.6953 21.0117 74.3077 20.6242C73.9201 20.2368 73.5195 19.8527 73.1165 19.4826C72.5114 18.927 71.5705 18.9671 71.0148 19.5724C70.4593 20.1774 70.4993 21.1185 71.1046 21.6741C71.4763 22.0155 71.8462 22.3699 72.204 22.7276C72.5615 23.0852 72.9161 23.4553 73.2577 23.8272C73.551 24.1467 73.9518 24.3086 74.3539 24.3086C74.7133 24.3086 75.0738 24.1791 75.3594 23.917C75.9646 23.3616 76.0049 22.4205 75.4494 21.8155Z" fill="white" stroke="white" stroke-width="0.002"/>
<path d="M67.8345 15.4236C60.6613 10.8535 52.0248 8.82254 43.5169 9.70333C34.8843 10.5977 26.7444 14.476 20.5961 20.6241C13.8298 27.3904 9.89025 36.379 9.5032 45.9341C9.11856 55.433 12.2647 64.6555 18.3623 71.9022C18.6564 72.2517 19.0772 72.4319 19.5014 72.4319C19.8395 72.4319 20.1794 72.3172 20.4583 72.0827C21.0867 71.5537 21.1676 70.6154 20.6388 69.987C15.0203 63.3093 12.1213 54.8102 12.4757 46.0547C12.8323 37.2483 16.4631 28.964 22.6995 22.7278C28.3661 17.061 35.8681 13.4864 43.8232 12.6624C51.6672 11.8497 59.6265 13.7217 66.2358 17.9325C66.9288 18.3739 67.848 18.1702 68.2895 17.4774C68.7311 16.7844 68.5271 15.865 67.8345 15.4236Z" fill="white" stroke="white" stroke-width="0.002"/>
<path d="M79.5088 27.0978C79.0674 26.4048 78.1475 26.2011 77.455 26.6425C76.762 27.0839 76.5584 28.0035 76.9999 28.6961C81.2107 35.3057 83.0823 43.2653 82.2699 51.1087C81.4459 59.0638 77.8714 66.5657 72.2048 72.2326C65.9683 78.4689 57.6841 82.0998 48.8778 82.4565C40.1239 82.8123 31.6231 79.9121 24.9456 74.2937C24.3172 73.7647 23.3788 73.8456 22.8499 74.4742C22.3209 75.1027 22.4018 76.041 23.0304 76.57C29.881 82.334 38.4959 85.4608 47.4421 85.4607C47.9595 85.4607 48.4791 85.4501 48.9986 85.4291C58.5537 85.0422 67.5422 81.1027 74.3087 74.3364C80.457 68.1881 84.3354 60.048 85.2294 51.4154C86.1104 42.907 84.0788 34.2709 79.5088 27.0978Z" fill="white" stroke="white" stroke-width="0.002"/>
</svg>
